<svg width="147" height="62" viewBox="0 0 147 62" fill="none" xmlns="http://www.w3.org/2000/svg">
<g clip-path="url(#clip0_29_2)">
<path d="M130.296 10.0321C131.489 10.9248 131.453 13.1698 130.198 15.0614C128.952 16.944 126.981 17.766 125.779 16.8822C124.586 16.0071 124.612 13.7532 125.858 11.8529C127.096 9.96135 129.085 9.15702 130.296 10.0321ZM136.615 16.3518C137.499 17.5716 136.686 19.5515 134.812 20.8066C132.903 22.044 130.658 22.0794 129.774 20.8773C128.881 19.6664 129.703 17.6953 131.595 16.4579C133.486 15.2028 135.731 15.1674 136.615 16.3518ZM121.501 9.36915C122.942 9.94367 123.525 12.1003 122.871 14.1863C122.146 16.2546 120.449 17.492 119.017 16.9264C117.585 16.3607 117.002 14.2217 117.691 12.1357C118.381 10.0497 120.104 8.82114 121.501 9.36915ZM137.411 25.2791C137.959 26.6756 136.73 28.3992 134.644 29.0886C132.558 29.778 130.419 29.1947 129.854 27.7628C129.288 26.3309 130.525 24.6338 132.594 23.909C134.68 23.255 136.836 23.8383 137.411 25.2791ZM126.406 33.3312C125.611 34.1974 124.055 34.4803 122.95 34.0649C120.644 33.2075 120.272 29.8311 118.513 28.0721C116.754 26.3132 113.298 25.9862 112.529 23.6439C112.079 22.3269 112.618 20.568 113.687 19.7283C115.163 18.5704 117.453 19.4454 119.353 19.4189C121.846 19.4189 125.072 17.9605 126.848 19.7371C128.616 21.5049 127.246 24.7487 127.158 27.2236C127.061 29.283 127.785 31.8286 126.406 33.3312Z" fill="#818181"/>
</g>
<path d="M14.1903 50.5668H3.59553V17.8395H14.5259C17.7326 17.8395 20.4865 18.4947 22.7876 19.8051C25.0888 21.1048 26.8519 22.9744 28.0771 25.4141C29.3129 27.8431 29.9308 30.7568 29.9308 34.1552C29.9308 37.5643 29.3075 40.494 28.0611 42.9443C26.8253 45.3945 25.0355 47.2802 22.6918 48.6012C20.348 49.9116 17.5142 50.5668 14.1903 50.5668ZM8.53338 46.2521H13.9187C16.4116 46.2521 18.4837 45.7834 20.1349 44.8459C21.7862 43.8977 23.022 42.5288 23.8423 40.739C24.6626 38.9386 25.0728 36.744 25.0728 34.1552C25.0728 31.5877 24.6626 29.4091 23.8423 27.6193C23.0327 25.8296 21.8235 24.4712 20.2148 23.5444C18.6062 22.6176 16.6087 22.1541 14.2223 22.1541H8.53338V46.2521ZM41.3017 51.0622C39.0006 51.0622 36.9924 50.5348 35.2772 49.4801C33.562 48.4254 32.2303 46.9499 31.2822 45.0536C30.334 43.1573 29.86 40.9414 29.86 38.4059C29.86 35.8597 30.334 33.6332 31.2822 31.7262C32.2303 29.8193 33.562 28.3384 35.2772 27.2837C36.9924 26.2291 39.0006 25.7017 41.3017 25.7017C43.6029 25.7017 45.611 26.2291 47.3262 27.2837C49.0414 28.3384 50.3731 29.8193 51.3213 31.7262C52.2694 33.6332 52.7435 35.8597 52.7435 38.4059C52.7435 40.9414 52.2694 43.1573 51.3213 45.0536C50.3731 46.9499 49.0414 48.4254 47.3262 49.4801C45.611 50.5348 43.6029 51.0622 41.3017 51.0622ZM41.3177 47.0511C42.8092 47.0511 44.045 46.657 45.0251 45.8686C46.0052 45.0803 46.7296 44.0309 47.1984 42.7205C47.6778 41.4102 47.9175 39.9666 47.9175 38.3899C47.9175 36.8239 47.6778 35.3857 47.1984 34.0753C46.7296 32.7543 46.0052 31.6943 45.0251 30.8953C44.045 30.0962 42.8092 29.6967 41.3177 29.6967C39.8156 29.6967 38.5691 30.0962 37.5784 30.8953C36.5982 31.6943 35.8685 32.7543 35.3891 34.0753C34.9203 35.3857 34.686 36.8239 34.686 38.3899C34.686 39.9666 34.9203 41.4102 35.3891 42.7205C35.8685 44.0309 36.5982 45.0803 37.5784 45.8686C38.5691 46.657 39.8156 47.0511 41.3177 47.0511ZM63.643 60.2827C61.6935 60.2827 60.0156 60.027 58.6093 59.5156C57.2137 59.0043 56.0738 58.3278 55.1896 57.4862C54.3053 56.6445 53.6448 55.723 53.208 54.7216L57.3149 53.0277C57.6026 53.4965 57.9861 53.9918 58.4655 54.5139C58.9555 55.0465 59.6161 55.4993 60.447 55.8722C61.2886 56.245 62.37 56.4315 63.691 56.4315C65.5021 56.4315 66.9989 55.9894 68.1814 55.1051C69.3639 54.2315 69.9552 52.8359 69.9552 50.9183V46.0923H69.6516C69.3639 46.6144 68.9484 47.195 68.4051 47.8342C67.8724 48.4734 67.1374 49.0274 66.1999 49.4961C65.2624 49.9649 64.0425 50.1992 62.5404 50.1992C60.6015 50.1992 58.8543 49.7465 57.2989 48.8409C55.7542 47.9247 54.529 46.5771 53.6235 44.798C52.7286 43.0082 52.2812 40.8082 52.2812 38.1982C52.2812 35.5881 52.7233 33.3509 53.6075 31.4865C54.5024 29.6222 55.7276 28.1946 57.283 27.2038C58.8384 26.2024 60.6015 25.7017 62.5724 25.7017C64.0958 25.7017 65.3263 25.9574 66.2638 26.4688C67.2013 26.9695 67.931 27.5554 68.4531 28.2266C68.9857 28.8977 69.3959 29.489 69.6835 30.0004H70.0351V26.0213H74.7173V51.1101C74.7173 53.2195 74.2272 54.9507 73.2471 56.3036C72.267 57.6566 70.9406 58.658 69.268 59.3079C67.6061 59.9578 65.7311 60.2827 63.643 60.2827ZM63.5951 46.2362C64.9694 46.2362 66.1306 45.9166 67.0788 45.2774C68.0376 44.6275 68.762 43.7007 69.2521 42.4968C69.7528 41.2823 70.0031 39.8281 70.0031 38.1342C70.0031 36.483 69.7581 35.0288 69.268 33.7717C68.778 32.5146 68.0589 31.5345 67.1107 30.8313C66.1626 30.1176 64.9907 29.7607 63.5951 29.7607C62.1569 29.7607 60.9584 30.1335 59.9996 30.8793C59.0408 31.6144 58.3163 32.6158 57.8263 33.8835C57.3469 35.1513 57.1072 36.5682 57.1072 38.1342C57.1072 39.7429 57.3522 41.1545 57.8423 42.369C58.3323 43.5835 59.0567 44.5316 60.0156 45.2134C60.985 45.8953 62.1782 46.2362 63.5951 46.2362Z" fill="#818181"/>
<path d="M86.6915 60.2827C84.7419 60.2827 83.064 60.027 81.6577 59.5156C80.2621 59.0043 79.1222 58.3278 78.238 57.4862C77.3538 56.6445 76.6932 55.723 76.2565 54.7216L80.3633 53.0277C80.651 53.4965 81.0345 53.9918 81.5139 54.5139C82.004 55.0465 82.6645 55.4993 83.4955 55.8722C84.3371 56.245 85.4184 56.4315 86.7394 56.4315C88.5505 56.4315 90.0473 55.9894 91.2298 55.1051C92.4124 54.2315 93.0036 52.8359 93.0036 50.9183V46.0923H92.7C92.4124 46.6144 91.9969 47.195 91.4535 47.8342C90.9209 48.4734 90.1858 49.0274 89.2483 49.4961C88.3108 49.9649 87.091 50.1992 85.5888 50.1992C83.6499 50.1992 81.9028 49.7465 80.3474 48.8409C78.8026 47.9247 77.5775 46.5771 76.6719 44.798C75.7771 43.0082 75.3296 40.8082 75.3296 38.1982C75.3296 35.5881 75.7717 33.3509 76.656 31.4865C77.5508 29.6222 78.776 28.1946 80.3314 27.2038C81.8868 26.2024 83.6499 25.7017 85.6208 25.7017C87.1442 25.7017 88.3747 25.9574 89.3122 26.4688C90.2497 26.9695 90.9795 27.5554 91.5015 28.2266C92.0342 28.8977 92.4443 29.489 92.732 30.0004H93.0835V26.0213H97.7657V51.1101C97.7657 53.2195 97.2756 54.9507 96.2955 56.3036C95.3154 57.6566 93.9891 58.658 92.3165 59.3079C90.6545 59.9578 88.7795 60.2827 86.6915 60.2827ZM86.6435 46.2362C88.0178 46.2362 89.179 45.9166 90.1272 45.2774C91.086 44.6275 91.8104 43.7007 92.3005 42.4968C92.8012 41.2823 93.0516 39.8281 93.0516 38.1342C93.0516 36.483 92.8065 35.0288 92.3165 33.7717C91.8264 32.5146 91.1073 31.5345 90.1592 30.8313C89.211 30.1176 88.0391 29.7607 86.6435 29.7607C85.2053 29.7607 84.0068 30.1335 83.048 30.8793C82.0892 31.6144 81.3648 32.6158 80.8747 33.8835C80.3953 35.1513 80.1556 36.5682 80.1556 38.1342C80.1556 39.7429 80.4006 41.1545 80.8907 42.369C81.3807 43.5835 82.1052 44.5316 83.064 45.2134C84.0334 45.8953 85.2266 46.2362 86.6435 46.2362ZM109.788 51.0622C107.487 51.0622 105.479 50.5348 103.763 49.4801C102.048 48.4254 100.716 46.9499 99.7683 45.0536C98.8202 43.1573 98.3461 40.9414 98.3461 38.4059C98.3461 35.8597 98.8202 33.6332 99.7683 31.7262C100.716 29.8193 102.048 28.3384 103.763 27.2837C105.479 26.2291 107.487 25.7017 109.788 25.7017C112.089 25.7017 114.097 26.2291 115.812 27.2837C117.528 28.3384 118.859 29.8193 119.807 31.7262C120.756 33.6332 121.23 35.8597 121.23 38.4059C121.23 40.9414 120.756 43.1573 119.807 45.0536C118.859 46.9499 117.528 48.4254 115.812 49.4801C114.097 50.5348 112.089 51.0622 109.788 51.0622ZM109.804 47.0511C111.295 47.0511 112.531 46.657 113.511 45.8686C114.491 45.0803 115.216 44.0309 115.685 42.7205C116.164 41.4102 116.404 39.9666 116.404 38.3899C116.404 36.8239 116.164 35.3857 115.685 34.0753C115.216 32.7543 114.491 31.6943 113.511 30.8953C112.531 30.0962 111.295 29.6967 109.804 29.6967C108.302 29.6967 107.055 30.0962 106.064 30.8953C105.084 31.6943 104.355 32.7543 103.875 34.0753C103.406 35.3857 103.172 36.8239 103.172 38.3899C103.172 39.9666 103.406 41.4102 103.875 42.7205C104.355 44.0309 105.084 45.0803 106.064 45.8686C107.055 46.657 108.302 47.0511 109.804 47.0511Z" fill="#FFCA0D"/>
<defs>
<clipPath id="clip0_29_2">
<rect width="30" height="30" fill="white" transform="translate(125.567) rotate(45)"/>
</clipPath>
</defs>
</svg>
